<?xml version="1.0" encoding="utf-8"?>
<svg version="1.1" viewBox="0 0 1190 750" stroke-miterlimit="10" id="svg2" width="1190cm" height="750cm" style="fill:none;stroke:none;stroke-linecap:square;stroke-miterlimit:10" xmlns="http://www.w3.org/2000/svg">
  <path style="fill:#f1c232;fill-opacity:1;stroke:none;stroke-width:4.26723px;stroke-linecap:butt;stroke-linejoin:miter;stroke-opacity:1" d="M 643.037 300.285 L 563.037 300.285 L 563.037 380.285 L 643.037 380.285 L 643.037 300.285 Z" id="box_1" type="movable"/>
  <path style="fill:#000000;fill-opacity:1;stroke:none;stroke-width:5.20704px;stroke-linecap:butt;stroke-linejoin:miter;stroke-opacity:1" d="M 1170,0 H 20 v 20 h 1150 z" id="wall_1" type="wall"/>
  <path style="fill:#000000;fill-opacity:1;stroke:none;stroke-width:5.2071px;stroke-linecap:butt;stroke-linejoin:miter;stroke-miterlimit:10;stroke-opacity:1" d="M 1170,730 H 20 v 20 h 1150 z" id="wall_4" type="wall"/>
  <path style="fill: rgb(0, 0, 0); fill-opacity: 1; stroke: none; stroke-width: 9.30491px; stroke-linecap: butt; stroke-linejoin: miter; stroke-miterlimit: 10; stroke-opacity: 1;" d="M 850 632.504 L 550 632.504 L 550 730 L 850 730 L 850 632.504 Z" id="wall_3" type="wall"/>
  <path style="fill: rgb(0, 0, 0); fill-opacity: 1; stroke: none; stroke-width: 9.01884px; stroke-linecap: butt; stroke-linejoin: miter; stroke-miterlimit: 10; stroke-opacity: 1;" d="M 850 20 L 550 20 L 550 153.571 L 850 153.571 L 850 20 Z" id="wall_2" type="wall"/>
  <path d="m 980.99885,591.05912 v 0 c 0,-31.6293 24.81925,-57.2699 55.43545,-57.2699 v 0 c 14.7023,0 28.8025,6.03379 39.1987,16.774 10.3961,10.74013 16.2366,25.307 16.2366,40.4959 v 0 c 0,31.62924 -24.8193,57.26985 -55.4353,57.26985 v 0 c -30.6162,0 -55.43545,-25.64061 -55.43545,-57.26985 z" id="goal_0" style="fill:none;fill-rule:evenodd;stroke:#1155cc;stroke-width:8.02302;stroke-linecap:square;stroke-miterlimit:10;stroke-opacity:1" type="shape"/>
  <path id="rect1009" style="fill:#000000;stroke-width:1.82029" d="M 0,0 H 20 V 750 H 0 Z" type="wall"/>
  <path id="rect1009-6" style="fill:#000000;stroke-width:1.82029" d="m 1170,0 h 20 v 750 h -20 z" type="wall"/>
  <path id="robot_0" style="fill:#0000ff;stroke-width:4.03994" d="M 367.33 224.022 C 367.33 257.159 340.467 284.022 307.33 284.022 C 274.193 284.022 247.33 257.159 247.33 224.022 C 247.33 190.885 274.193 164.022 307.33 164.022 C 340.467 164.022 367.33 190.885 367.33 224.022 Z" type="shape"/>
  <path id="path-1" style="fill: rgb(0, 200, 100); stroke-width: 4.03994px;" d="M 1041.24 254.465 C 1041.24 287.602 1014.38 314.465 981.245 314.465 C 948.112 314.465 921.249 287.602 921.249 254.465 C 921.249 221.328 948.112 194.465 981.245 194.465 C 1014.38 194.465 1041.24 221.328 1041.24 254.465 Z" type="shape"/>
  <path d="M 226.708 575.992 C 226.708 544.362 251.527 518.722 282.143 518.722 C 296.846 518.722 310.946 524.756 321.342 535.496 C 331.738 546.236 337.579 560.803 337.579 575.992 C 337.579 607.621 312.759 633.261 282.143 633.261 C 251.527 633.261 226.708 607.621 226.708 575.992 Z" id="path-2" style="fill: none; fill-rule: evenodd; stroke: rgb(0, 200, 100); stroke-width: 8.02302px; stroke-linecap: square; stroke-miterlimit: 10; stroke-opacity: 1;" type="shape"/>
</svg>